<svg width="1448" height="966" viewBox="0 0 1448 966" fill="none" xmlns="http://www.w3.org/2000/svg">
<path fill-rule="evenodd" clip-rule="evenodd" d="M2066.61 -9.42981C1939.46 -281.368 1611.44 -184.228 1467.74 -387.254C1389.07 -498.392 1262.52 -745.996 899.726 -432.424C666.239 -229.131 793.847 37.6057 1106.23 156.802C1188.42 200.27 1225.11 258.899 1248.09 337.083C1271.07 415.266 1219.64 585.642 1313.72 742.082C1596.82 1212.86 2542.77 1008.96 2066.61 -9.42981Z" fill="#194A99"/>
<path fill-rule="evenodd" clip-rule="evenodd" d="M521.608 884.57C394.461 612.632 66.4434 709.772 -77.2637 506.747C-155.931 395.608 -282.481 148.004 -645.274 461.577C-878.761 664.87 -751.153 931.606 -438.769 1050.8C-356.584 1094.27 -319.893 1152.9 -296.91 1231.08C-273.928 1309.27 -325.357 1479.64 -231.284 1636.08C51.8159 2106.86 997.77 1902.96 521.608 884.57Z" fill="#194A99"/>
</svg>
